<?xml version="1.0" standalone="no"?>
<!DOCTYPE svg PUBLIC "-//W3C//DTD SVG 1.1//EN" "http://www.w3.org/Graphics/SVG/1.1/DTD/svg11.dtd">
<svg width="95" height="450" viewBox="0 -450 95 450" xmlns="http://www.w3.org/2000/svg" version="1.1">
<title>OpenSCAD Model</title>
<path d="
M 30,-430 L 90,-430 L 70,-450 L 0,-450 L 0,-0 L 30,-0
 z
M 95,-195 L 94.9039,-195.975 L 94.6194,-196.913 L 94.1573,-197.778 L 93.5355,-198.536 L 92.7778,-199.157
 L 91.9134,-199.619 L 90.9754,-199.904 L 90,-200 L 60,-200 L 55,-205 L 55,-230
 L 35,-250 L 35,-190 L 95,-190 z
M 44.6098,-193.038 L 44.2346,-193.152 L 43.8889,-193.337 L 43.5858,-193.586 L 43.3371,-193.889 L 43.1522,-194.235
 L 43.0384,-194.61 L 43,-195 L 43.0384,-195.39 L 43.1522,-195.765 L 43.3371,-196.111 L 43.5858,-196.414
 L 43.8889,-196.663 L 44.2346,-196.848 L 44.6098,-196.962 L 45,-197 L 45.3902,-196.962 L 45.7654,-196.848
 L 46.1111,-196.663 L 46.4142,-196.414 L 46.6629,-196.111 L 46.8477,-195.765 L 46.9616,-195.39 L 47,-195
 L 46.9616,-194.61 L 46.8477,-194.235 L 46.6629,-193.889 L 46.4142,-193.586 L 46.1111,-193.337 L 45.7654,-193.152
 L 45.3902,-193.038 L 45,-193 z
M 84.6098,-193.038 L 84.2346,-193.152 L 83.8889,-193.337 L 83.5858,-193.586 L 83.3371,-193.889 L 83.1522,-194.235
 L 83.0384,-194.61 L 83,-195 L 83.0384,-195.39 L 83.1522,-195.765 L 83.3371,-196.111 L 83.5858,-196.414
 L 83.8889,-196.663 L 84.2346,-196.848 L 84.6098,-196.962 L 85,-197 L 85.3902,-196.962 L 85.7654,-196.848
 L 86.1111,-196.663 L 86.4142,-196.414 L 86.6629,-196.111 L 86.8477,-195.765 L 86.9616,-195.39 L 87,-195
 L 86.9616,-194.61 L 86.8477,-194.235 L 86.6629,-193.889 L 86.4142,-193.586 L 86.1111,-193.337 L 85.7654,-193.152
 L 85.3902,-193.038 L 85,-193 z
M 90.9754,-140.096 L 91.9134,-140.381 L 92.7778,-140.843 L 93.5355,-141.464 L 94.1573,-142.222 L 94.6194,-143.087
 L 94.9039,-144.025 L 95,-145 L 95,-160 L 35,-160 L 35,-145 L 35.0961,-144.025
 L 35.3806,-143.087 L 35.8427,-142.222 L 36.4645,-141.464 L 37.2222,-140.843 L 38.0866,-140.381 L 39.0246,-140.096
 L 40,-140 L 90,-140 z
M 69.4147,-153.058 L 68.8519,-153.228 L 68.3333,-153.506 L 67.8787,-153.879 L 67.5056,-154.333 L 67.2283,-154.852
 L 67.0576,-155.415 L 67,-156 L 67.0576,-156.585 L 67.2283,-157.148 L 67.5056,-157.667 L 67.8787,-158.121
 L 68.3333,-158.494 L 68.8519,-158.772 L 69.4147,-158.942 L 70,-159 L 70.5853,-158.942 L 71.148,-158.772
 L 71.6667,-158.494 L 72.1213,-158.121 L 72.4944,-157.667 L 72.7716,-157.148 L 72.9424,-156.585 L 73,-156
 L 72.9424,-155.415 L 72.7716,-154.852 L 72.4944,-154.333 L 72.1213,-153.879 L 71.6667,-153.506 L 71.148,-153.228
 L 70.5853,-153.058 L 70,-153 z
M 84.6098,-148.038 L 84.2346,-148.152 L 83.8889,-148.337 L 83.5858,-148.586 L 83.3371,-148.889 L 83.1522,-149.235
 L 83.0384,-149.61 L 83,-150 L 83.0384,-150.39 L 83.1522,-150.765 L 83.3371,-151.111 L 83.5858,-151.414
 L 83.8889,-151.663 L 84.2346,-151.848 L 84.6098,-151.962 L 85,-152 L 85.3902,-151.962 L 85.7654,-151.848
 L 86.1111,-151.663 L 86.4142,-151.414 L 86.6629,-151.111 L 86.8477,-150.765 L 86.9616,-150.39 L 87,-150
 L 86.9616,-149.61 L 86.8477,-149.235 L 86.6629,-148.889 L 86.4142,-148.586 L 86.1111,-148.337 L 85.7654,-148.152
 L 85.3902,-148.038 L 85,-148 z
M 44.6098,-148.038 L 44.2346,-148.152 L 43.8889,-148.337 L 43.5858,-148.586 L 43.3371,-148.889 L 43.1522,-149.235
 L 43.0384,-149.61 L 43,-150 L 43.0384,-150.39 L 43.1522,-150.765 L 43.3371,-151.111 L 43.5858,-151.414
 L 43.8889,-151.663 L 44.2346,-151.848 L 44.6098,-151.962 L 45,-152 L 45.3902,-151.962 L 45.7654,-151.848
 L 46.1111,-151.663 L 46.4142,-151.414 L 46.6629,-151.111 L 46.8477,-150.765 L 46.9616,-150.39 L 47,-150
 L 46.9616,-149.61 L 46.8477,-149.235 L 46.6629,-148.889 L 46.4142,-148.586 L 46.1111,-148.337 L 45.7654,-148.152
 L 45.3902,-148.038 L 45,-148 z
M 90.9754,-70.0961 L 91.9134,-70.3806 L 92.7778,-70.8427 L 93.5355,-71.4645 L 94.1573,-72.2222 L 94.6194,-73.0866
 L 94.9039,-74.0246 L 95,-75 L 95,-125 L 94.9039,-125.975 L 94.6194,-126.913 L 94.1573,-127.778
 L 93.5355,-128.536 L 92.7778,-129.157 L 91.9134,-129.619 L 90.9754,-129.904 L 90,-130 L 40,-130
 L 39.0246,-129.904 L 38.0866,-129.619 L 37.2222,-129.157 L 36.4645,-128.536 L 35.8427,-127.778 L 35.3806,-126.913
 L 35.0961,-125.975 L 35,-125 L 35,-75 L 35.0961,-74.0246 L 35.3806,-73.0866 L 35.8427,-72.2222
 L 36.4645,-71.4645 L 37.2222,-70.8427 L 38.0866,-70.3806 L 39.0246,-70.0961 L 40,-70 L 90,-70
 z
M 44.6098,-123.038 L 44.2346,-123.152 L 43.8889,-123.337 L 43.5858,-123.586 L 43.3371,-123.889 L 43.1522,-124.235
 L 43.0384,-124.61 L 43,-125 L 43.0384,-125.39 L 43.1522,-125.765 L 43.3371,-126.111 L 43.5858,-126.414
 L 43.8889,-126.663 L 44.2346,-126.848 L 44.6098,-126.962 L 45,-127 L 45.3902,-126.962 L 45.7654,-126.848
 L 46.1111,-126.663 L 46.4142,-126.414 L 46.6629,-126.111 L 46.8477,-125.765 L 46.9616,-125.39 L 47,-125
 L 46.9616,-124.61 L 46.8477,-124.235 L 46.6629,-123.889 L 46.4142,-123.586 L 46.1111,-123.337 L 45.7654,-123.152
 L 45.3902,-123.038 L 45,-123 z
M 84.6098,-123.038 L 84.2346,-123.152 L 83.8889,-123.337 L 83.5858,-123.586 L 83.3371,-123.889 L 83.1522,-124.235
 L 83.0384,-124.61 L 83,-125 L 83.0384,-125.39 L 83.1522,-125.765 L 83.3371,-126.111 L 83.5858,-126.414
 L 83.8889,-126.663 L 84.2346,-126.848 L 84.6098,-126.962 L 85,-127 L 85.3902,-126.962 L 85.7654,-126.848
 L 86.1111,-126.663 L 86.4142,-126.414 L 86.6629,-126.111 L 86.8477,-125.765 L 86.9616,-125.39 L 87,-125
 L 86.9616,-124.61 L 86.8477,-124.235 L 86.6629,-123.889 L 86.4142,-123.586 L 86.1111,-123.337 L 85.7654,-123.152
 L 85.3902,-123.038 L 85,-123 z
M 60,-74.4 L 59.6879,-74.4307 L 59.3877,-74.5218 L 59.1111,-74.6696 L 58.8686,-74.8686 L 58.6696,-75.1111
 L 58.5218,-75.3877 L 58.4307,-75.6879 L 58.4,-76 L 58.4,-115 L 58.4307,-115.312 L 58.5218,-115.612
 L 58.6696,-115.889 L 58.8686,-116.131 L 59.1111,-116.33 L 59.3877,-116.478 L 59.6879,-116.569 L 60,-116.6
 L 60.3121,-116.569 L 60.6123,-116.478 L 60.8889,-116.33 L 61.1314,-116.131 L 61.3303,-115.889 L 61.4782,-115.612
 L 61.5692,-115.312 L 61.6,-115 L 61.6,-77.6 L 78.4,-77.6 L 78.4,-115 L 78.4307,-115.312
 L 78.5218,-115.612 L 78.6696,-115.889 L 78.8686,-116.131 L 79.1111,-116.33 L 79.3877,-116.478 L 79.6879,-116.569
 L 80,-116.6 L 80.3121,-116.569 L 80.6123,-116.478 L 80.8889,-116.33 L 81.1314,-116.131 L 81.3303,-115.889
 L 81.4782,-115.612 L 81.5692,-115.312 L 81.6,-115 L 81.6,-76 L 81.5692,-75.6879 L 81.4782,-75.3877
 L 81.3303,-75.1111 L 81.1314,-74.8686 L 80.8889,-74.6696 L 80.6123,-74.5218 L 80.3121,-74.4307 L 80,-74.4
 z
M 69.4147,-83.0576 L 68.8519,-83.2283 L 68.3333,-83.5056 L 67.8787,-83.8787 L 67.5056,-84.3333 L 67.2283,-84.8519
 L 67.0576,-85.4147 L 67,-86 L 67.0576,-86.5853 L 67.2283,-87.148 L 67.5056,-87.6667 L 67.8787,-88.1213
 L 68.3333,-88.4944 L 68.8519,-88.7716 L 69.4147,-88.9424 L 70,-89 L 70.5853,-88.9424 L 71.148,-88.7716
 L 71.6667,-88.4944 L 72.1213,-88.1213 L 72.4944,-87.6667 L 72.7716,-87.148 L 72.9424,-86.5853 L 73,-86
 L 72.9424,-85.4147 L 72.7716,-84.8519 L 72.4944,-84.3333 L 72.1213,-83.8787 L 71.6667,-83.5056 L 71.148,-83.2283
 L 70.5853,-83.0576 L 70,-83 z
M 44.6098,-78.0384 L 44.2346,-78.1522 L 43.8889,-78.3371 L 43.5858,-78.5858 L 43.3371,-78.8889 L 43.1522,-79.2346
 L 43.0384,-79.6098 L 43,-80 L 43.0384,-80.3902 L 43.1522,-80.7654 L 43.3371,-81.1111 L 43.5858,-81.4142
 L 43.8889,-81.6629 L 44.2346,-81.8477 L 44.6098,-81.9616 L 45,-82 L 45.3902,-81.9616 L 45.7654,-81.8477
 L 46.1111,-81.6629 L 46.4142,-81.4142 L 46.6629,-81.1111 L 46.8477,-80.7654 L 46.9616,-80.3902 L 47,-80
 L 46.9616,-79.6098 L 46.8477,-79.2346 L 46.6629,-78.8889 L 46.4142,-78.5858 L 46.1111,-78.3371 L 45.7654,-78.1522
 L 45.3902,-78.0384 L 45,-78 z
M 84.6098,-78.0384 L 84.2346,-78.1522 L 83.8889,-78.3371 L 83.5858,-78.5858 L 83.3371,-78.8889 L 83.1522,-79.2346
 L 83.0384,-79.6098 L 83,-80 L 83.0384,-80.3902 L 83.1522,-80.7654 L 83.3371,-81.1111 L 83.5858,-81.4142
 L 83.8889,-81.6629 L 84.2346,-81.8477 L 84.6098,-81.9616 L 85,-82 L 85.3902,-81.9616 L 85.7654,-81.8477
 L 86.1111,-81.6629 L 86.4142,-81.4142 L 86.6629,-81.1111 L 86.8477,-80.7654 L 86.9616,-80.3902 L 87,-80
 L 86.9616,-79.6098 L 86.8477,-79.2346 L 86.6629,-78.8889 L 86.4142,-78.5858 L 86.1111,-78.3371 L 85.7654,-78.1522
 L 85.3902,-78.0384 L 85,-78 z
M 90.9754,-0.0960693 L 91.9134,-0.3806 L 92.7778,-0.842651 L 93.5355,-1.46446 L 94.1573,-2.22215 L 94.6194,-3.08658
 L 94.9039,-4.02455 L 95,-5 L 95,-55 L 94.9039,-55.9754 L 94.6194,-56.9134 L 94.1573,-57.7778
 L 93.5355,-58.5355 L 92.7778,-59.1573 L 91.9134,-59.6194 L 90.9754,-59.9039 L 90,-60 L 40,-60
 L 39.0246,-59.9039 L 38.0866,-59.6194 L 37.2222,-59.1573 L 36.4645,-58.5355 L 35.8427,-57.7778 L 35.3806,-56.9134
 L 35.0961,-55.9754 L 35,-55 L 35,-5 L 35.0961,-4.02455 L 35.3806,-3.08658 L 35.8427,-2.22215
 L 36.4645,-1.46446 L 37.2222,-0.842651 L 38.0866,-0.3806 L 39.0246,-0.0960693 L 40,-0 L 90,-0
 z
M 44.6098,-53.0384 L 44.2346,-53.1522 L 43.8889,-53.3371 L 43.5858,-53.5858 L 43.3371,-53.8889 L 43.1522,-54.2346
 L 43.0384,-54.6098 L 43,-55 L 43.0384,-55.3902 L 43.1522,-55.7654 L 43.3371,-56.1111 L 43.5858,-56.4142
 L 43.8889,-56.6629 L 44.2346,-56.8477 L 44.6098,-56.9616 L 45,-57 L 45.3902,-56.9616 L 45.7654,-56.8477
 L 46.1111,-56.6629 L 46.4142,-56.4142 L 46.6629,-56.1111 L 46.8477,-55.7654 L 46.9616,-55.3902 L 47,-55
 L 46.9616,-54.6098 L 46.8477,-54.2346 L 46.6629,-53.8889 L 46.4142,-53.5858 L 46.1111,-53.3371 L 45.7654,-53.1522
 L 45.3902,-53.0384 L 45,-53 z
M 84.6098,-53.0384 L 84.2346,-53.1522 L 83.8889,-53.3371 L 83.5858,-53.5858 L 83.3371,-53.8889 L 83.1522,-54.2346
 L 83.0384,-54.6098 L 83,-55 L 83.0384,-55.3902 L 83.1522,-55.7654 L 83.3371,-56.1111 L 83.5858,-56.4142
 L 83.8889,-56.6629 L 84.2346,-56.8477 L 84.6098,-56.9616 L 85,-57 L 85.3902,-56.9616 L 85.7654,-56.8477
 L 86.1111,-56.6629 L 86.4142,-56.4142 L 86.6629,-56.1111 L 86.8477,-55.7654 L 86.9616,-55.3902 L 87,-55
 L 86.9616,-54.6098 L 86.8477,-54.2346 L 86.6629,-53.8889 L 86.4142,-53.5858 L 86.1111,-53.3371 L 85.7654,-53.1522
 L 85.3902,-53.0384 L 85,-53 z
M 69.4147,-13.0576 L 68.8519,-13.2283 L 68.3333,-13.5056 L 67.8787,-13.8787 L 67.5056,-14.3333 L 67.2283,-14.8519
 L 67.0576,-15.4147 L 67,-16 L 67.0576,-16.5853 L 67.2283,-17.148 L 67.5056,-17.6667 L 67.8787,-18.1213
 L 68.3333,-18.4944 L 68.8519,-18.7716 L 69.4147,-18.9424 L 70,-19 L 70.5853,-18.9424 L 71.148,-18.7716
 L 71.6667,-18.4944 L 72.1213,-18.1213 L 72.4944,-17.6667 L 72.7716,-17.148 L 72.9424,-16.5853 L 73,-16
 L 72.9424,-15.4147 L 72.7716,-14.8519 L 72.4944,-14.3333 L 72.1213,-13.8787 L 71.6667,-13.5056 L 71.148,-13.2283
 L 70.5853,-13.0576 L 70,-13 z
M 44.6098,-8.03842 L 44.2346,-8.15224 L 43.8889,-8.33705 L 43.5858,-8.58578 L 43.3371,-8.88885 L 43.1522,-9.23462
 L 43.0384,-9.60982 L 43,-10 L 43.0384,-10.3902 L 43.1522,-10.7654 L 43.3371,-11.1111 L 43.5858,-11.4142
 L 43.8889,-11.6629 L 44.2346,-11.8477 L 44.6098,-11.9616 L 45,-12 L 45.3902,-11.9616 L 45.7654,-11.8477
 L 46.1111,-11.6629 L 46.4142,-11.4142 L 46.6629,-11.1111 L 46.8477,-10.7654 L 46.9616,-10.3902 L 47,-10
 L 46.9616,-9.60982 L 46.8477,-9.23462 L 46.6629,-8.88885 L 46.4142,-8.58578 L 46.1111,-8.33705 L 45.7654,-8.15224
 L 45.3902,-8.03842 L 45,-8 z
M 84.6098,-8.03842 L 84.2346,-8.15224 L 83.8889,-8.33705 L 83.5858,-8.58578 L 83.3371,-8.88885 L 83.1522,-9.23462
 L 83.0384,-9.60982 L 83,-10 L 83.0384,-10.3902 L 83.1522,-10.7654 L 83.3371,-11.1111 L 83.5858,-11.4142
 L 83.8889,-11.6629 L 84.2346,-11.8477 L 84.6098,-11.9616 L 85,-12 L 85.3902,-11.9616 L 85.7654,-11.8477
 L 86.1111,-11.6629 L 86.4142,-11.4142 L 86.6629,-11.1111 L 86.8477,-10.7654 L 86.9616,-10.3902 L 87,-10
 L 86.9616,-9.60982 L 86.8477,-9.23462 L 86.6629,-8.88885 L 86.4142,-8.58578 L 86.1111,-8.33705 L 85.7654,-8.15224
 L 85.3902,-8.03842 L 85,-8 z
" stroke="black" fill="lightgray" stroke-width="0.5"/></svg>
